<svg width="500" height="500" viewBox="0 0 500 500" fill="none" xmlns="http://www.w3.org/2000/svg">
<g clip-path="url(#clip0_2017_155)">
<path d="M80 0.5H420C463.907 0.5 499.5 36.0934 499.5 80V420C499.5 463.907 463.907 499.5 420 499.5H80C36.0934 499.5 0.5 463.907 0.5 420V80C0.5 36.0934 36.0934 0.5 80 0.5Z" fill="url(#paint0_radial_2017_155)" stroke="black"/>
<path d="M258.376 116L258.617 116.013L258.831 116.027L259.941 116.094L260.088 116.12H260.235L260.743 116.241L261.439 116.348L261.653 116.428L261.8 116.441L262.188 116.588L262.883 116.776L263.138 116.896L263.338 116.95L263.713 117.137L264.248 117.364L264.529 117.525L264.823 117.658L265.13 117.859L265.545 118.086L266 118.407L266.24 118.555L266.414 118.715L266.735 118.942L267.244 119.397L267.538 119.625L267.645 119.758L267.832 119.919L268.314 120.467L268.661 120.828L268.742 120.949C270.347 122.915 271.363 125.255 271.657 127.81L271.671 127.97L271.697 128.519L271.751 129.375V209.623H338.625C340.969 209.623 343.272 210.238 345.303 211.408C347.334 212.578 349.023 214.261 350.198 216.289C351.374 218.317 351.996 220.618 352.003 222.962C352.009 225.307 351.399 227.611 350.234 229.645L349.431 230.862L242.433 377.985C234.837 388.457 218.252 383.067 218.252 370.12V289.872H151.378C149.034 289.872 146.731 289.257 144.7 288.087C142.668 286.917 140.98 285.234 139.804 283.206C138.628 281.178 138.006 278.877 138 276.533C137.994 274.188 138.604 271.884 139.769 269.85L140.571 268.633L247.569 121.51L247.703 121.337L247.944 121.016L248.385 120.507L248.626 120.213L248.746 120.106L248.92 119.919L249.455 119.437L249.83 119.09L249.937 119.009C251.504 117.726 253.343 116.816 255.313 116.348L255.46 116.334L255.822 116.268L256.811 116.094L256.958 116.08L257.507 116.053L258.376 116Z" fill="black"/>
<path opacity="0.2" d="M245 426C342.202 426 421 347.202 421 250C421 152.798 342.202 74 245 74C147.798 74 69 152.798 69 250C69 347.202 147.798 426 245 426Z" stroke="black" stroke-width="4"/>
<path opacity="0.1" d="M245 471C367.055 471 466 372.055 466 250C466 127.945 367.055 29 245 29C122.945 29 24 127.945 24 250C24 372.055 122.945 471 245 471Z" stroke="black" stroke-width="3"/>
</g>
<defs>
<radialGradient id="paint0_radial_2017_155" cx="0" cy="0" r="1" gradientUnits="userSpaceOnUse" gradientTransform="translate(25000 15000) scale(35000)">
<stop stop-color="white"/>
<stop offset="1" stop-color="white"/>
</radialGradient>
<clipPath id="clip0_2017_155">
<rect width="500" height="500" fill="white"/>
</clipPath>
</defs>
</svg>
